name C:\Users\u0101727\Documents\MyRepositories\paper-ad\predictivesimulations_2d/Results/PredSim_2D/IK_c23.mot
datacolumns 11
datarows 25
range 0.63317722 0.86342348
endheader
time	pelvis_tilt	pelvis_tx	pelvis_ty	hip_flexion_l	hip_flexion_r	knee_angle_l	knee_angle_r	ankle_angle_l	ankle_angle_r	lumbar_extension	
          0.63317722	        -15.06839669	          0.85495287	          0.89987600	         25.70862478	         11.38628583	        -10.65365946	        -40.88713045	          8.49915878	         -0.30935316	         10.32422068	
          0.64277081	        -15.08548179	          0.86692542	          0.90131322	         24.78982949	         12.65914540	        -10.40665879	        -41.78368123	          8.60183672	          0.66690723	         10.28587038	
          0.65236440	        -15.10008461	          0.87884216	          0.90250679	         23.85576818	         13.96445158	        -10.13483084	        -42.57233639	          8.74529576	          1.72312991	         10.24353268	
          0.66195800	        -15.11219096	          0.89071071	          0.90345997	         22.91086810	         15.29719309	         -9.84596759	        -43.24492999	          8.92366726	          2.84164535	         10.19752793	
          0.67155159	        -15.12192516	          0.90253837	          0.90418338	         21.95901733	         16.65138749	         -9.54711207	        -43.79394851	          9.13045324	          4.00464048	         10.14833309	
          0.68114519	        -15.12944989	          0.91433139	          0.90469398	         21.00439481	         18.02120874	         -9.24584554	        -44.21171376	          9.35796847	          5.19426840	         10.09637616	
          0.69073878	        -15.13490669	          0.92609527	          0.90501257	         20.05157684	         19.40118939	         -8.95000638	        -44.49039167	          9.59817484	          6.39271152	         10.04199671	
          0.70033237	        -15.13844115	          0.93783602	          0.90516056	         19.10536764	         20.78480867	         -8.66799761	        -44.62307284	          9.84313272	          7.58217296	          9.98557662	
          0.70992597	        -15.14027327	          0.94956066	          0.90515826	         18.16900431	         22.16518082	         -8.40541782	        -44.60409411	         10.08551891	          8.74498214	          9.92764550	
          0.71951956	        -15.14072036	          0.96127757	          0.90502377	         17.24328570	         23.53538509	         -8.16356364	        -44.42943421	         10.31869245	          9.86376696	          9.86895021	
          0.72911316	        -15.14006479	          0.97299547	          0.90477263	         16.32963238	         24.88757245	         -7.94523163	        -44.09702999	         10.53586732	         10.92179091	          9.81022009	
          0.73870675	        -15.13855155	          0.98472256	          0.90441797	         15.43019999	         26.21377051	         -7.75402895	        -43.60594283	         10.73097034	         11.90360848	          9.75207554	
          0.74830035	        -15.13642275	          0.99646794	          0.90397044	         14.54655312	         27.50513750	         -7.59299493	        -42.95925558	         10.89937065	         12.79582060	          9.69525554	
          0.75789394	        -15.13393664	          1.00824003	          0.90343917	         13.67962897	         28.75368328	         -7.46415882	        -42.16148327	         11.03811671	         13.58819650	          9.64044855	
          0.76748753	        -15.13135731	          1.02004545	          0.90283221	         12.83029065	         29.95319584	         -7.36861378	        -41.21699217	         11.14607277	         14.27465163	          9.58814271	
          0.77708113	        -15.12892370	          1.03189049	          0.90215609	         11.99924223	         31.09799061	         -7.30800693	        -40.13245514	         11.22396462	         14.85358675	          9.53877691	
          0.78667472	        -15.12685733	          1.04377953	          0.90141613	         11.18680307	         32.18510139	         -7.28325162	        -38.91337991	         11.27460814	         15.32782174	          9.49254263	
          0.79626832	        -15.12536980	          1.05571616	          0.90061609	         10.39286030	         33.21316997	         -7.29474572	        -37.56475759	         11.30246151	         15.70363461	          9.44950528	
          0.80586191	        -15.12468012	          1.06770374	          0.89975791	          9.61716397	         34.18160581	         -7.34249968	        -36.09197884	         11.31283892	         15.98938753	          9.40964378	
          0.81545550	        -15.12507034	          1.07974681	          0.89884170	          8.85910099	         35.08891654	         -7.42594654	        -34.50255553	         11.31099785	         16.19422494	          9.37303278	
          0.82504910	        -15.12693138	          1.09185183	          0.89786633	          8.11762310	         35.93162964	         -7.54402782	        -32.80420411	         11.30053646	         16.32726806	          9.33998074	
          0.83464269	        -15.13058494	          1.10402694	          0.89683062	          7.39238396	         36.70517174	         -7.69704019	        -31.00839571	         11.28227152	         16.39730009	          9.31087318	
          0.84423629	        -15.13609921	          1.11628412	          0.89573723	          6.68427949	         37.40285181	         -7.88865292	        -29.14132624	         11.25458383	         16.41247014	          9.28629952	
          0.85382988	        -15.14350121	          1.12864166	          0.89459861	          5.99534172	         38.01172130	         -8.12511021	        -27.23719482	         11.21142294	         16.38006693	          9.26756450	
          0.86342348	        -15.15281087	          1.14112106	          0.89343647	          5.32873346	         38.51598864	         -8.41354638	        -25.32820704	         11.14036515	         16.30648983	          9.25639042	
